<svg width="124" height="124" viewBox="0 0 124 124" fill="none" xmlns="http://www.w3.org/2000/svg">
<g clip-path="url(#clip0)">
<path d="M63.6139 73.1887L28.1908 49.6341L79.0038 33.5306L63.6139 73.1887Z" fill="#CFF3FC"/>
<path d="M53.5974 41.5823L63.614 73.1887L79.0039 33.5306L53.5974 41.5823Z" fill="#A8EBFA"/>
<path d="M62.711 53.6431L57.3171 51.6847L68.9281 19.1744L74.3219 21.1328L62.711 53.6431Z" fill="#FFC34D"/>
<path d="M82.1576 15.5648C82.5504 11.0118 79.1777 7.0024 74.6247 6.60968C70.0716 6.21696 66.0622 9.58959 65.6695 14.1427C65.2768 18.6957 68.6494 22.7051 73.2025 23.0978C77.7556 23.4905 81.7649 20.1179 82.1576 15.5648Z" fill="#00EE84"/>
<path d="M38.4371 56.7964L63.7541 73.6309L74.7532 45.2872L38.4371 56.7964Z" fill="#FF80D4"/>
<path d="M56.5952 51.0418L63.7541 73.6309L74.7532 45.2872L56.5952 51.0418Z" fill="#FF4DC3"/>
<path d="M83.845 28.9865L21.6161 48.7079L61.184 75.0185L71.2613 106.817L76.7316 105.083L66.6543 73.2849L83.845 28.9865ZM74.1628 38.0746L62.2305 68.8232L34.7655 50.5603L74.1628 38.0746Z" fill="#A8EBFA"/>
<path d="M52.7305 38.8472L54.4642 44.3175L74.1628 38.0747L62.2305 68.8232L73.9965 105.95L76.7316 105.083L66.6543 73.2849L83.845 28.9865L52.7305 38.8472Z" fill="#99DDFF"/>
<path d="M57.2657 108.242L88.9936 98.187L90.7272 103.657L58.9994 113.712L57.2657 108.242Z" fill="#CFF3FC"/>
<path d="M73.1296 103.215L88.9936 98.187L90.7272 103.657L74.8633 108.685L73.1296 103.215Z" fill="#A8EBFA"/>
</g>
<defs>
<clipPath id="clip0">
<rect width="98" height="98" fill="white" transform="translate(0 29.6067) rotate(-17.5843)"/>
</clipPath>
</defs>
</svg>
