<svg width="126" height="126" viewBox="0 0 126 126" fill="none" xmlns="http://www.w3.org/2000/svg">
<g clip-path="url(#clip0)">
<path d="M53.0724 88.4102L58.8924 89.9696L54.214 107.43L48.394 105.87L53.0724 88.4102Z" fill="#D5E8FE"/>
<path d="M55.9824 89.1899L58.8924 89.9696L54.214 107.43L51.304 106.65L55.9824 89.1899Z" fill="#B5DBFF"/>
<path d="M25.8118 3.13281L5.53887 78.7925L104.866 105.407L125.139 29.7476L25.8118 3.13281Z" fill="#5F55AF"/>
<path d="M75.4756 16.4402L125.139 29.7476L104.866 105.407L55.2027 92.0999L75.4756 16.4402Z" fill="#453D83"/>
<path d="M25.8939 96.7223L78.2737 110.757L76.7142 116.577L24.3344 102.542L25.8939 96.7223Z" fill="#EDF5FF"/>
<path d="M52.0838 103.74L78.2737 110.757L76.7142 116.577L50.5243 109.56L52.0838 103.74Z" fill="#D5E8FE"/>
<path d="M70.287 71.1904L59.4131 76.3859L54.6094 78.7167L51.9531 73.2642L61.3238 68.7887L55.4463 60.2275L60.473 56.8336L63.4677 61.254L70.287 71.1904Z" fill="#64E1DC"/>
<path d="M33.3371 73.0131L23.5055 58.6553L39.1987 51.137L41.8007 56.5674L32.4457 61.0509L38.3057 69.6112L33.3371 73.0131Z" fill="#64E1DC"/>
<path d="M38.2164 74.306L50.2605 52.5855L55.5258 55.5052L43.4818 77.2256L38.2164 74.306Z" fill="#64E1DC"/>
<path d="M56.2473 30.0015L62.0673 31.5609L60.5078 37.3809L54.6879 35.8215L56.2473 30.0015Z" fill="#FFDA2D"/>
<path d="M67.8873 33.1204L73.7073 34.6799L72.1478 40.4998L66.3278 38.9404L67.8873 33.1204Z" fill="#FFDA2D"/>
<path d="M88.0483 50.9982L93.8683 52.5576L92.3088 58.3776L86.4888 56.8182L88.0483 50.9982Z" fill="#9CDD05"/>
<path d="M99.6882 54.1171L105.508 55.6766L103.949 61.4965L98.1288 59.9371L99.6882 54.1171Z" fill="#9CDD05"/>
<path d="M81.8104 74.2781L87.6304 75.8375L86.0709 81.6575L80.251 80.0981L81.8104 74.2781Z" fill="#00C8C8"/>
<path d="M93.4504 77.397L99.2704 78.9565L97.7109 84.7764L91.891 83.217L93.4504 77.397Z" fill="#00C8C8"/>
<path d="M79.5272 36.2393L108.627 44.0366L107.068 49.8566L77.9678 42.0593L79.5272 36.2393Z" fill="#00C8C8"/>
<path d="M79.1094 61.0787L84.9294 62.6381L83.3699 68.4581L77.5499 66.8987L79.1094 61.0787Z" fill="#FDBF00"/>
<path d="M90.7493 64.1976L102.389 67.3165L100.83 73.1365L89.1899 70.0176L90.7493 64.1976Z" fill="#FDBF00"/>
<path d="M32.9674 23.7637L50.4273 28.442L48.8679 34.262L31.4079 29.5836L32.9674 23.7637Z" fill="#FFDA2D"/>
<path d="M53.1284 41.6414L82.2283 49.4387L80.6688 55.2587L51.569 47.4614L53.1284 41.6414Z" fill="#FF80AC"/>
<path d="M35.6685 36.9631L47.3084 40.082L45.749 45.902L34.109 42.783L35.6685 36.9631Z" fill="#C3EA21"/>
<path d="M70.7972 33.9001L73.7072 34.6798L72.1478 40.4998L69.2378 39.7201L70.7972 33.9001Z" fill="#FDBF00"/>
<path d="M63.4678 61.254L70.2871 71.1904L59.4132 76.386L63.4678 61.254Z" fill="#00C8C8"/>
<path d="M67.6783 45.5401L82.2283 49.4387L80.6688 55.2587L66.1189 51.3601L67.6783 45.5401Z" fill="#FF3980"/>
</g>
<defs>
<clipPath id="clip0">
<rect width="102.832" height="102.832" fill="white" transform="translate(26.6436 0.0288086) rotate(15)"/>
</clipPath>
</defs>
</svg>
