<svg width="120" height="120" viewBox="0 0 120 120" fill="none" xmlns="http://www.w3.org/2000/svg">
<g clip-path="url(#clip0)">
<path fill-rule="evenodd" clip-rule="evenodd" d="M23.3657 56.471L18.5704 59.4823C17.5771 60.1033 17.271 61.4223 17.8963 62.4176L19.1203 64.3731C18.3093 65.3064 17.5927 66.3303 16.9907 67.4321L14.7046 66.9059C13.5608 66.6455 12.4131 67.3639 12.1525 68.5088L10.8844 74.0287C10.6182 75.1726 11.3407 76.3224 12.479 76.5815L14.8527 77.1277C14.9367 78.3511 15.147 79.5516 15.4707 80.7086L13.3944 82.0164C12.4011 82.6374 12.095 83.9565 12.7203 84.9517L15.7194 89.7547C16.346 90.7445 17.6636 91.0502 18.6569 90.4292L20.7387 89.1226C21.6335 89.9198 22.6221 90.6347 23.6816 91.239L23.1403 93.6167C22.8741 94.7603 23.5966 95.9104 24.7336 96.175L30.2527 97.4431C31.391 97.7022 32.5388 96.9838 32.8048 95.8401L33.3317 93.5514C34.5843 93.485 35.8153 93.2869 37.004 92.9698L38.228 94.9252C38.849 95.9137 40.1721 96.2208 41.1654 95.5998L45.9607 92.5885C46.954 91.9675 47.2558 90.6417 46.636 89.6479L45.4796 87.8C46.3394 86.8547 47.1006 85.8121 47.7483 84.686L49.8265 85.165C50.9703 85.4254 52.118 84.7069 52.3786 83.562L53.6467 78.0421C53.9129 76.8982 53.1904 75.7484 52.0478 75.4825L50.0558 75.029C49.9912 73.6947 49.7706 72.3883 49.4176 71.1323L51.1365 70.0542C52.1298 69.4332 52.4317 68.1073 51.8106 67.1188L48.8115 62.3159C48.1862 61.3206 46.8674 61.0204 45.8741 61.6414L44.1551 62.7195C43.1785 61.8517 42.1031 61.0883 40.9311 60.4469L41.3919 58.4486C41.6568 57.3102 40.9343 56.1604 39.7973 55.8958L34.2782 54.6277C33.1344 54.3673 31.9867 55.0857 31.7261 56.2306L31.2466 58.3113C29.9537 58.4029 28.6813 58.6321 27.4593 58.9934L26.3029 57.1455C25.6778 56.1503 24.359 55.8501 23.3657 56.471Z" fill="#838383"/>
<path fill-rule="evenodd" clip-rule="evenodd" d="M34.3561 80.9858C33.3306 84.1003 31.9393 86.9242 30.2989 89.3513C28.7585 91.6169 27.0028 93.5393 25.1141 95.0341C24.7498 95.32 24.3769 95.5924 24.0024 95.8471C24.2153 95.9993 24.4667 96.1084 24.7336 96.175L30.2527 97.4431C31.0682 97.6288 31.888 97.314 32.3845 96.7009C32.5836 96.4582 32.7314 96.1634 32.805 95.8402L33.3319 93.5514C34.5845 93.485 35.8154 93.2869 37.0042 92.9698L38.2282 94.9253C38.8492 95.9138 40.1723 96.2208 41.1656 95.5998L45.9609 92.5886C46.9542 91.9676 47.256 90.6417 46.6362 89.6479L45.4798 87.8C46.3396 86.8548 47.1008 85.8122 47.7485 84.6861L49.8267 85.165C50.9705 85.4254 52.1182 84.707 52.3788 83.562L53.6469 78.0421C53.9131 76.8983 53.1905 75.7485 52.048 75.4826L50.056 75.0291C49.9914 73.6947 49.7708 72.3883 49.4178 71.1323L51.1367 70.0542C52.13 69.4332 52.4318 68.1074 51.8108 67.1189L48.8117 62.3159C48.1863 61.3207 46.8675 61.0204 45.8743 61.6414L44.1553 62.7195C43.1787 61.8518 42.1033 61.0884 40.9313 60.447L41.3921 58.4486C41.657 57.3103 40.9345 56.1605 39.7975 55.8958L34.2784 54.6277C33.8131 54.5218 33.3406 54.5757 32.9346 54.7655C32.7241 54.8558 32.5279 54.984 32.3596 55.1418C35.2436 59.3883 36.6682 65.5444 36.1227 72.2891C36.3552 72.5321 36.5716 72.7947 36.7547 73.0783C37.5324 74.2638 37.8451 75.7469 37.5004 77.2357C37.1556 78.7246 36.2317 79.9261 35.0133 80.6514C34.8064 80.7772 34.5842 80.8937 34.3561 80.9858Z" fill="#595959"/>
<path fill-rule="evenodd" clip-rule="evenodd" d="M33.4706 70.7921C30.577 70.1275 27.6956 71.938 27.0316 74.8293C26.3663 77.7262 28.1679 80.6086 31.0615 81.2729C33.9539 81.943 36.8353 80.1326 37.5006 77.2357C38.1646 74.3444 36.359 71.4553 33.4706 70.7921Z" fill="#F9F7F7"/>
<path fill-rule="evenodd" clip-rule="evenodd" d="M32.8287 76.1663C32.3609 78.2208 30.7692 79.7255 28.851 80.1878C29.4759 80.7046 30.2243 81.0825 31.0617 81.2732C32.2042 81.5391 33.3493 81.4136 34.3561 80.986C34.5842 80.8939 34.8064 80.7774 35.0135 80.6515C36.2321 79.9262 37.156 78.7247 37.5006 77.2357C37.8454 75.7468 37.5326 74.2638 36.7548 73.0784C36.5718 72.7948 36.3554 72.5321 36.1229 72.2891C35.4243 71.5654 34.52 71.0368 33.4706 70.7921C32.6279 70.6003 31.7895 70.6169 31.0092 70.8081C32.5318 72.0593 33.303 74.1075 32.8287 76.1663Z" fill="#E2E2E2"/>
<path fill-rule="evenodd" clip-rule="evenodd" d="M47.2361 85.8484L57.8141 88.2566L68.3868 90.6635C72.262 73.6417 89.2132 75.1842 93.3571 56.8808C97.3119 39.4334 85.7704 27.7816 72.2373 24.9024C58.7862 21.6385 43.3436 27.147 39.3504 44.5857C35.1627 62.8793 51.1113 68.8265 47.2361 85.8484Z" fill="#FE9737"/>
<path fill-rule="evenodd" clip-rule="evenodd" d="M64.7965 24.0097C75.769 27.7697 84.4527 37.5374 82.8252 51.5388C82.6974 52.6564 82.4994 53.8042 82.2337 54.971C81.8526 56.6706 81.3549 58.1996 80.7683 59.5875C80.0795 61.2228 79.2693 62.6577 78.3637 63.9554C77.6631 64.9599 76.9062 65.8825 76.1138 66.7335C69.9627 73.3488 61.4939 76.1633 58.0347 86.0479L65.0174 87.6376C66.3518 84.8353 68.4612 82.371 71.2767 80.5975C72.5601 79.7889 73.9145 79.1752 75.2957 78.7463C81.8198 72.5906 90.5432 69.3154 93.3568 56.8807C97.3117 39.4333 85.7701 27.7816 72.2371 24.9024C69.7942 24.306 67.2896 24.0068 64.7965 24.0097Z" fill="#F36B37"/>
<path d="M73.5461 19.1534C72.7455 18.9712 72.2442 18.1746 72.4264 17.374L73.3819 13.1771C73.5642 12.3765 74.3607 11.8753 75.1615 12.0577C75.9623 12.24 76.4632 13.0365 76.281 13.8371L75.3255 18.0338C75.1433 18.8344 74.3467 19.3357 73.5461 19.1534Z" fill="#FE9737"/>
<path d="M57.1552 19.346C56.784 19.2615 56.4449 19.0352 56.2263 18.6872L53.9364 15.0424C53.4997 14.3473 53.7092 13.4297 54.4044 12.9929C55.0993 12.5561 56.0171 12.7657 56.454 13.4609L58.7439 17.1056C59.1805 17.8007 58.971 18.7183 58.2758 19.1552C57.9287 19.3734 57.5259 19.4304 57.1552 19.346Z" fill="#FE9737"/>
<path d="M88.2328 26.4211C87.8622 26.3367 87.5236 26.111 87.3049 25.7639C86.8674 25.0692 87.0757 24.1514 87.7703 23.7138L91.4122 21.4194C92.107 20.9819 93.025 21.1903 93.4624 21.8848C93.9 22.5795 93.6916 23.4974 92.9971 23.935L89.3551 26.2293C89.0076 26.4484 88.604 26.5056 88.2328 26.4211Z" fill="#FE9737"/>
<path d="M69.6048 55.8323L60.5153 53.763C59.7147 53.5807 58.9182 54.0818 58.7359 54.8824C58.5536 55.6831 59.0547 56.4796 59.8554 56.6619L63.0355 57.3859L56.5855 85.7178C56.4032 86.5184 56.9043 87.3151 57.7051 87.4974C58.5059 87.6797 59.3022 87.1786 59.4845 86.3778L65.9345 58.046L68.945 58.7314C69.7456 58.9137 70.5423 58.4126 70.7246 57.612C70.9069 56.8114 70.4054 56.0146 69.6048 55.8323Z" fill="#E2E2E2"/>
<path fill-rule="evenodd" clip-rule="evenodd" d="M46.8943 95.567L55.7506 94.1603L64.4932 99.5735L63.1288 105.567C62.3779 108.865 59.0651 110.952 55.7708 110.202L50.1508 108.922C46.8564 108.172 44.779 104.859 45.5298 101.56L46.8943 95.567Z" fill="#838383"/>
<path fill-rule="evenodd" clip-rule="evenodd" d="M46.4007 83.3993L70.2053 88.8187C71.267 89.0604 71.9346 90.1228 71.6926 91.1856L69.9627 98.7843C69.7207 99.8472 68.6578 100.521 67.5961 100.28L43.7915 94.8604C42.7298 94.6187 42.058 93.5495 42.3 92.4867L44.0299 84.8879C44.2718 83.8253 45.339 83.1576 46.4007 83.3993Z" fill="#F9F7F7"/>
<path fill-rule="evenodd" clip-rule="evenodd" d="M61.7955 98.9593L46.8943 95.567L46.0449 99.2979L56.6997 101.724C59.2443 102.303 59.233 103.061 58.7154 105.334L58.5121 106.227L58.0331 108.331C57.8647 109.071 57.5659 109.752 57.1644 110.352C59.954 110.336 62.4843 108.4 63.1291 105.567L63.6068 103.469L64.4936 99.5736L61.7955 98.9593Z" fill="#595959"/>
<path fill-rule="evenodd" clip-rule="evenodd" d="M58.0349 86.048C57.7154 86.7186 57.4425 87.4114 57.2121 88.1195C56.5447 90.1918 56.2746 92.3892 56.4375 94.5816C56.5092 95.6064 56.6802 96.625 56.9409 97.6294L57.007 97.8692L61.7953 98.9593L63.9897 99.4589C63.9677 99.3789 63.9456 99.299 63.9235 99.2191C63.095 96.057 63.2152 92.7478 64.1948 89.7092C64.4251 89.0011 64.698 88.3082 65.0176 87.6376L58.0349 86.048Z" fill="#E2E2E2"/>
<path fill-rule="evenodd" clip-rule="evenodd" d="M65.9661 103.925C70.9349 111.833 81.3706 114.209 89.2729 109.231C97.1752 104.254 99.5524 93.8114 94.5837 85.9035C89.6149 77.9956 79.1792 75.6198 71.2769 80.5975C63.3746 85.5752 60.9973 96.0174 65.9661 103.925Z" fill="#97DA7B"/>
<path fill-rule="evenodd" clip-rule="evenodd" d="M83.3243 107.877C91.2266 102.899 93.6039 92.4572 88.6351 84.5493C86.7381 81.53 84.0421 79.3144 80.995 78.0097C86.3535 78.2385 91.512 81.0147 94.5835 85.9035C99.5523 93.8114 97.175 104.254 89.2727 109.231C84.3875 112.308 78.5357 112.578 73.6063 110.465C76.9179 110.608 80.3073 109.778 83.3243 107.877Z" fill="#68CA44"/>
<path d="M87.1051 92.8736L83.2263 86.7006C83.21 86.6746 83.1947 86.6531 83.1796 86.6338C82.9754 86.345 82.6695 86.1267 82.2974 86.042C81.8965 85.9507 81.4969 86.0308 81.1746 86.2341L75.0016 90.1179C74.3068 90.555 74.0978 91.473 74.5351 92.1678C74.7537 92.5153 75.0924 92.7412 75.4634 92.8257C75.8344 92.9101 76.2376 92.8531 76.5852 92.6344L79.7212 90.6613L77.1378 102.009C76.9556 102.809 77.4567 103.606 78.2575 103.788C79.0581 103.971 79.8548 103.47 80.0371 102.669L82.6198 91.3242L84.5876 94.456C84.8062 94.8038 85.1451 95.03 85.5163 95.1145C85.8869 95.1989 86.2899 95.142 86.6374 94.9238C87.3323 94.4865 87.5418 93.5687 87.1051 92.8736Z" fill="#E2E2E2"/>
</g>
<defs>
<clipPath id="clip0">
<rect width="100" height="100" fill="white" transform="translate(22.1979) rotate(12.8253)"/>
</clipPath>
</defs>
</svg>
