<svg width="118" height="118" viewBox="0 0 118 118" fill="none" xmlns="http://www.w3.org/2000/svg">
<g clip-path="url(#clip0)">
<path d="M58.4257 9.18616L64.9785 9.54209L64.2715 22.5589L57.7187 22.2029L58.4257 9.18616Z" fill="#1F3399"/>
<path d="M61.7032 9.36417L64.9785 9.54207L64.2715 22.5588L60.9962 22.3809L61.7032 9.36417Z" fill="#141466"/>
<path d="M107.239 32.0732L101.363 29.1513L105.446 20.9405L105.944 11.7672L112.497 12.1231L111.925 22.6492L107.239 32.0732Z" fill="#141466"/>
<path d="M13.9732 27.0074L10.3356 17.1311L10.9073 6.6051L17.4602 6.96103L16.9619 16.1344L20.1311 24.739L13.9732 27.0074Z" fill="#1F3399"/>
<path d="M5.909 3.04752L117.744 9.12205L117.388 15.6749L5.55307 9.60036L5.909 3.04752Z" fill="#8095FF"/>
<path d="M103.154 58.2509L100.711 64.3902L90.0574 113.67L78.1575 113.024L72.7049 82.5549L72.4812 60.3113L78.5103 52.4016L82.0963 46.8808L103.154 58.2509Z" fill="#8095FF"/>
<path d="M45.4221 58.7649L43.0287 82.1148L34.1202 110.632L22.2137 109.985L16.9631 59.8413L15.1993 53.4735L37.3644 44.4511L40.3313 50.3279L45.4221 58.7649Z" fill="#00EE84"/>
<path d="M88.7657 39.9236L97.7161 23.3652L114.518 32.4473L105.568 49.0058L88.7657 39.9236Z" fill="#0A0A33"/>
<path d="M84.1726 60.4927L87.6486 54.4986L93.3256 57.7907L89.8496 63.7848L84.1726 60.4927Z" fill="#FF9933"/>
<path d="M99.8652 39.4042C96.9004 37.8033 93.4897 37.4528 90.261 38.4171C87.0325 39.3815 84.3726 41.5454 82.7718 44.5101L78.5103 52.4019L100.71 64.3893L104.971 56.4976C108.276 50.377 105.985 42.7088 99.8652 39.4042Z" fill="#141466"/>
<path d="M6.71921 26.5287L24.4063 19.3199L31.5105 36.7504L13.8234 43.9592L6.71921 26.5287Z" fill="#141466"/>
<path d="M25.0387 54.0542L31.0386 51.3964L33.845 57.7318L27.845 60.3896L25.0387 54.0542Z" fill="#FFC34D"/>
<path d="M36.9495 42.0214C35.6791 38.9005 33.2695 36.4613 30.1642 35.1528C27.059 33.844 23.6305 33.8237 20.5098 35.0939L20.5098 35.0937C17.3889 36.3641 14.9495 38.7737 13.6412 41.879C12.3327 44.984 12.3118 48.4127 13.5823 51.5338L16.9638 59.8405L40.331 50.3281L36.9495 42.0214Z" fill="#1F3399"/>
<path d="M70.7261 19.6231L51.6501 18.587L50.6034 37.3803L69.6782 38.4424L70.7261 19.6231Z" fill="#141466"/>
<path d="M61.1742 19.1043L60.1526 37.9121L69.6782 38.4424L70.726 19.6231L61.1742 19.1043Z" fill="#0A0A33"/>
<path d="M71.7493 47.8913L47.4853 46.5401L46.6629 53.0669L45.4221 58.7648L36.4231 108.566L76.0912 110.72L72.4812 60.3113L71.853 54.4695L71.7493 47.8913Z" fill="#FF4DC3"/>
<path d="M56.2564 109.643L76.0912 110.72L72.4812 60.3113L71.853 54.4696L71.7493 47.8913L59.6471 47.2173L56.2564 109.643Z" fill="#FF3377"/>
<path d="M57.8968 79.4415L51.0262 91.4385L34.1201 110.632L45.4221 58.7648L57.8968 79.4415Z" fill="#FFDD99"/>
<path d="M78.1574 113.024L65.4487 95.4611L57.8968 79.4416L72.4812 60.3113L78.1574 113.024Z" fill="#FF80D4"/>
<path d="M78.1574 113.024L34.1202 110.632L57.8968 79.4416L65.8429 96.1141L78.1574 113.024Z" fill="#DFFBFC"/>
<path d="M57.8968 79.4416L56.1377 111.828L78.1574 113.024L57.8968 79.4416Z" fill="#A8EBFA"/>
<path d="M62.4231 55.9163L59.0658 57.9194L55.752 57.7361L56.1286 50.9653L62.6809 51.3298L62.4231 55.9163Z" fill="#FFC34D"/>
<path d="M59.4336 51.1492L59.0658 57.9205L62.3044 58.1006L62.6809 51.3298L59.4336 51.1492Z" fill="#FF9933"/>
<path d="M60.4579 32.2183C60.4518 32.218 60.4459 32.2177 60.44 32.2173C57.0821 32.0349 53.8532 33.169 51.3463 35.4113C48.8349 37.6577 47.3487 40.7478 47.1613 44.112L46.6626 53.0669L59.2914 53.7629L71.9714 52.2853L72.3516 45.5145C72.7381 38.5698 67.4025 32.6052 60.4579 32.2183Z" fill="#1F3399"/>
<path d="M61.8812 6.08774L117.744 9.12204L117.388 15.6749L61.5253 12.6406L61.8812 6.08774Z" fill="#6666FF"/>
<path d="M60.4618 32.2187L59.2912 53.7701L71.853 54.4695L72.3519 45.5144C72.738 38.5709 67.4046 32.6074 60.4618 32.2187Z" fill="#141466"/>
</g>
<defs>
<clipPath id="clip0">
<rect width="112" height="112" fill="white" transform="translate(6.07452) rotate(3.10907)"/>
</clipPath>
</defs>
</svg>
