<svg width="117" height="117" viewBox="0 0 117 117" fill="none" xmlns="http://www.w3.org/2000/svg">
<g clip-path="url(#clip0)">
<path d="M4.33465 91.57L53.846 4.66517L87.643 109.836L37.6475 109.393" fill="#4C5E66"/>
<path d="M52.8572 36.7203L58.4419 37.3253L55.4526 60.9058L62.3151 57.7377L67.5802 84.4792L77.285 77.603L53.846 4.66517L52.8572 36.7203Z" fill="#829399"/>
<path d="M55.2785 88.4181L82.6998 42.1256L106.177 102.637" fill="#4C5E66"/>
<path d="M82.6997 42.1266L79.8851 70.0723L85.4696 70.6773L86.8784 106.637L106.177 102.636L82.6997 42.1266Z" fill="#829399"/>
<path d="M0.00733113 105.316L105.391 116.733L106.511 106.395C107.074 101.193 103.368 96.4512 98.1678 95.8466C98.1355 95.8431 98.1036 95.8375 98.0713 95.834C94.7741 95.4768 91.6572 96.5256 89.2894 98.4836C87.9746 92.1651 82.6298 87.1594 75.7926 86.6446C67.9354 86.0541 60.8957 91.8001 59.8927 99.6146C59.8797 99.7153 59.8731 99.8145 59.8624 99.9135C59.7231 99.8157 50.1264 93.2172 41.9326 99.8073C40.0141 101.327 39.0786 103.142 38.7636 105.027C37.3854 101.562 34.1614 98.9654 30.207 98.537C28.6905 98.3727 27.2205 98.5437 25.8564 98.998C25.0827 93.2422 20.4638 88.5782 14.4518 87.9269C14.3079 87.9113 14.1638 87.8978 14.0215 87.8867C7.39755 87.3886 1.5991 92.328 0.791356 98.9207L0.00733113 105.316Z" fill="#8BC923"/>
<path d="M41.3394 105.284C39.7732 106.523 38.8608 107.962 38.4101 109.476L105.391 116.733L105.917 111.872C106.481 106.667 102.774 101.928 97.5744 101.324C97.5423 101.318 97.5102 101.315 97.4779 101.311C94.1808 100.954 91.0641 102 88.6962 103.958C87.3814 97.6399 82.0367 92.6342 75.1992 92.1217C67.342 91.5312 60.3023 97.2771 59.2993 105.092C59.2864 105.192 59.28 105.29 59.269 105.391C59.1297 105.293 49.5335 98.692 41.3394 105.284Z" fill="#7EB515"/>
<path d="M0.084729 105.324L37.6475 109.393C36.0731 106.493 33.1321 104.395 29.6139 104.014C28.0973 103.85 26.6274 104.021 25.2633 104.475C24.4896 98.7191 19.8706 94.0551 13.8586 93.4038C13.7148 93.3882 13.5707 93.3747 13.4284 93.3636C6.80441 92.8655 1.00596 97.8049 0.198219 104.398L0.084729 105.324Z" fill="#7EB515"/>
<path d="M35.2689 37.2727L35.8952 52.7545L46.8873 41.5584L56.7787 50.4491L66.2284 43.1996L53.846 4.66517L35.2689 37.2727Z" fill="#BFC5D2"/>
<path d="M61.6896 77.5931L75.6752 73.6865L85.8356 80.0375L90.4611 75.6143L97.2343 79.5904L97.2363 79.5906L82.6997 42.1266L61.6896 77.5931Z" fill="#BFC5D2"/>
<path d="M52.8572 36.7203L58.4419 37.3253L56.7787 50.4491L66.2284 43.1996L53.846 4.66517L52.8572 36.7203Z" fill="#F1F5FE"/>
<path d="M82.6997 42.1266L79.8851 70.0723L85.4696 70.6773L85.8356 80.0375L90.4611 75.6143L97.2343 79.5904L82.6997 42.1266Z" fill="#F1F5FE"/>
</g>
<defs>
<clipPath id="clip0">
<rect width="106" height="106" fill="white" transform="translate(11.417) rotate(6.18318)"/>
</clipPath>
</defs>
</svg>
