<svg width="104" height="104" viewBox="0 0 104 104" fill="none" xmlns="http://www.w3.org/2000/svg">
<path fill-rule="evenodd" clip-rule="evenodd" d="M61.7297 82.759L59.0412 68.1873L52.0293 63.8967L39.1986 65.4729L31.7846 75.8077C32.3857 76.049 32.9967 76.2324 33.7892 76.4529C43.7214 79.2129 50.5093 77.7346 61.7297 82.759Z" fill="#FE8607"/>
<path fill-rule="evenodd" clip-rule="evenodd" d="M74.0795 75.4931C75.1375 63.2445 79.7267 58.0293 82.1382 48.0068C82.3304 47.207 82.4656 46.5885 82.5466 45.946L68.4266 47.9974L62.3032 57.8523L64.1958 66.9794L74.0795 75.4931Z" fill="#FE8607"/>
<path fill-rule="evenodd" clip-rule="evenodd" d="M74.0177 52.7843C72.6297 58.5477 70.5222 62.722 68.7809 67.5594L74.0795 75.4931C75.1375 63.2445 79.7267 58.0293 82.1382 48.0068C82.3304 47.207 82.4656 46.5885 82.5466 45.946L74.4261 50.7235C74.345 51.366 74.2099 51.9845 74.0177 52.7843Z" fill="#F46700"/>
<path fill-rule="evenodd" clip-rule="evenodd" d="M80.6357 100.765C84.4866 98.4949 86.0004 93.3524 83.5207 89.633L80.5619 85.2014L72.8942 87.3012L67.0674 93.1408L69.5042 97.8796C70.2112 99.2442 71.2894 100.283 72.5571 100.958C73.6698 101.553 74.9241 101.873 76.2033 101.903C77.7173 101.939 79.2609 101.57 80.6357 100.765Z" fill="#FEC165"/>
<path fill-rule="evenodd" clip-rule="evenodd" d="M76.1133 87.8189L79.0721 92.2505C81.06 95.229 80.4848 99.1167 78.2033 101.713C79.0453 101.529 79.866 101.214 80.6359 100.765C84.4867 98.495 86.0005 93.3524 83.5208 89.6331L80.562 85.2015L76.1133 87.8189Z" fill="#FEA610"/>
<path fill-rule="evenodd" clip-rule="evenodd" d="M74.0795 75.4931L62.3031 57.8521L55.0536 57.1546L52.0295 63.8966L61.7297 82.759L63.0764 85.3802L71.287 85.0649L75.7168 77.9433L74.0795 75.4931Z" fill="#FEC165"/>
<path fill-rule="evenodd" clip-rule="evenodd" d="M57.859 60.4707L69.6308 78.1104L71.268 80.5607L75.7168 77.9433L74.0795 75.4931L62.303 57.8521L57.859 60.4707Z" fill="#FEA610"/>
<path fill-rule="evenodd" clip-rule="evenodd" d="M67.0675 93.141L80.5621 85.2015L75.7168 77.9433L63.0764 85.3803L67.0675 93.141Z" fill="#FB2A39"/>
<path fill-rule="evenodd" clip-rule="evenodd" d="M71.268 80.5607L72.727 82.7486L75.3243 86.6341L76.1133 87.8189L80.5621 85.2014L75.7168 77.9433L71.268 80.5607Z" fill="#DD003A"/>
<path fill-rule="evenodd" clip-rule="evenodd" d="M31.7847 75.8075L52.0293 63.8965L62.3029 57.8521L82.5463 45.9458C82.6544 45.0438 82.6484 44.0971 82.5049 42.5367C82.3237 40.5391 81.9594 38.5697 81.4237 36.6411C82.1803 36.0882 76.1165 22.7077 70.5339 18.702C68.235 16.4573 65.6782 14.4323 62.91 12.6793C51.2941 5.3203 38.0083 5.19999 27.8997 11.1315C17.8053 17.0867 11.4575 28.7585 12.248 42.4865C12.9821 55.2497 18.868 67.3373 28.8295 74.1166C30.1251 74.9953 30.9437 75.4639 31.7847 75.8075Z" fill="#FB2A39"/>
<path fill-rule="evenodd" clip-rule="evenodd" d="M73.3094 41.4152C73.8244 43.2881 74.1833 45.2009 74.3708 47.1347C74.375 47.1961 74.3804 47.2528 74.3858 47.3095C74.5281 48.8745 74.5341 49.8212 74.426 50.7233L82.5465 45.9458C82.6546 45.0438 82.6485 44.0972 82.505 42.5367C82.3239 40.5392 81.9596 38.5697 81.4238 36.6411C82.1805 36.0882 76.1167 22.7077 70.534 18.702C68.2352 16.4573 65.6783 14.4323 62.9102 12.6793C51.2942 5.32033 38.0085 5.20002 27.8999 11.1315C26.5404 11.9354 25.2494 12.8425 24.0346 13.8449C33.4394 10.1442 44.7411 11.0924 54.7945 17.4583C57.5578 19.2101 60.1147 21.235 62.4195 23.4763C67.9963 27.4855 74.06 40.8658 73.3094 41.4152Z" fill="#DD003A"/>
<path fill-rule="evenodd" clip-rule="evenodd" d="M89.1254 28.8442C90.6344 23.0216 87.1201 17.0485 81.2975 15.5395C75.4798 14.0317 69.5019 17.5447 67.9928 23.3673C66.4851 29.185 70.0028 35.1642 75.8207 36.672C81.6431 38.181 87.6176 34.6621 89.1254 28.8442Z" fill="#F8F2F0"/>
<path fill-rule="evenodd" clip-rule="evenodd" d="M67.9928 23.3673C67.8561 23.8949 67.7582 24.4276 67.7018 24.9559C69.0501 23.1286 70.9338 21.7767 73.062 21.0716C74.9926 20.4307 77.117 20.3228 79.232 20.8709C84.5363 22.2456 87.9136 27.2934 87.3462 32.5858C88.1524 31.4927 88.7652 30.2339 89.1254 28.8442C90.638 23.0076 87.1343 17.0521 81.2975 15.5395C77.2652 14.4944 73.1803 15.8438 70.5342 18.7021C69.3533 19.9797 68.4604 21.5631 67.9928 23.3673Z" fill="#EEE1DC"/>
</svg>
