<svg width="164" height="164" viewBox="0 0 164 164" fill="none" xmlns="http://www.w3.org/2000/svg">
<g clip-path="url(#clip0)">
<path d="M72.5917 38.2597C71.4883 38.4898 70.4073 37.7815 70.1771 36.6778L68.4256 28.2768C68.1955 27.1731 68.9035 26.0919 70.0069 25.8618C71.1104 25.6318 72.1914 26.34 72.4215 27.4437L74.173 35.8447C74.4031 36.9484 73.6952 38.0296 72.5917 38.2597Z" fill="#9D9696"/>
<path d="M16.3672 66.4079C15.7308 66.5406 15.0419 66.3676 14.5369 65.8837L7.45729 59.0994C6.15416 57.8408 5.92206 56.6365 5.6979 55.4715C5.66737 55.3132 5.63552 55.1472 5.59888 54.9715L4.55493 49.9643C4.36541 49.0553 4.25573 47.9983 4.87817 47.0511C5.55773 46.0173 6.64934 45.7939 7.61446 45.5962L9.41962 45.2204C10.5231 44.9904 11.6041 45.6986 11.8342 46.8023C12.0643 47.9061 11.3564 48.9873 10.2529 49.2174L8.63892 49.5539L9.59474 54.1384C9.63589 54.3358 9.67177 54.5224 9.70605 54.7C9.89135 55.6627 9.94076 55.8231 10.2865 56.1569L17.3605 62.9357C18.1744 63.716 18.2023 65.008 17.4227 65.8223C17.1267 66.1309 16.7567 66.3267 16.3672 66.4079Z" fill="#9D9696"/>
<path d="M25.9875 64.4023C25.5983 64.4834 25.1817 64.4519 24.7871 64.2875C23.7467 63.8535 23.2549 62.6581 23.6888 61.6175L27.4599 52.5709C27.6408 52.1326 27.622 51.9661 27.4072 51.0095C27.3676 50.833 27.3259 50.6476 27.2848 50.4502L26.329 45.8657L24.715 46.2022C23.6115 46.4323 22.5305 45.724 22.3004 44.6203C22.0703 43.5166 22.7782 42.4354 23.8816 42.2053L25.6866 41.8284C26.6491 41.6236 27.74 41.3926 28.7763 42.0686C29.7253 42.6879 30.0471 43.7007 30.2367 44.6099L31.2807 49.6171C31.3173 49.7929 31.3545 49.958 31.3897 50.1151C31.6495 51.2726 31.9183 52.4696 31.2295 54.1366L27.4559 63.1889C27.1872 63.835 26.6244 64.2695 25.9875 64.4023Z" fill="#9D9696"/>
<path d="M135.38 41.5951C134.991 41.6762 134.574 41.6447 134.18 41.4802C133.139 41.0462 132.648 39.8509 133.082 38.8103L136.853 29.7636C137.037 29.3229 137.021 29.1758 136.805 28.2222C136.764 28.0396 136.72 27.8477 136.678 27.6429L135.722 23.0584L134.116 23.3933C133.012 23.6234 131.931 22.9151 131.701 21.8114C131.471 20.7077 132.179 19.6265 133.282 19.3964L135.08 19.0211C136.044 18.816 137.133 18.5853 138.17 19.2613C139.119 19.8806 139.44 20.8933 139.63 21.8026L140.674 26.8098C140.712 26.9908 140.75 27.1604 140.787 27.3218C141.036 28.4227 141.318 29.6703 140.619 31.3382L136.849 40.3818C136.579 41.0278 136.017 41.4623 135.38 41.5951Z" fill="#9D9696"/>
<path d="M125.76 43.6008C125.123 43.7336 124.433 43.5601 123.929 43.0756L116.857 36.2897C115.552 35.0421 115.312 33.7854 115.1 32.6768C115.069 32.5145 115.037 32.3437 114.999 32.1627L113.955 27.1554C113.766 26.2464 113.656 25.1895 114.279 24.2423C114.958 23.2085 116.051 22.9848 117.015 22.7874L118.813 22.4132C119.916 22.1831 120.997 22.8913 121.227 23.9951C121.457 25.0988 120.749 26.18 119.646 26.4101L118.04 26.745L118.995 31.3295C119.038 31.534 119.075 31.727 119.11 31.9107C119.294 32.8714 119.337 33.0132 119.681 33.3414L126.755 40.1293C127.568 40.9099 127.595 42.2021 126.815 43.0157C126.518 43.3242 126.149 43.5197 125.76 43.6008Z" fill="#9D9696"/>
<path fill-rule="evenodd" clip-rule="evenodd" d="M110.769 133.421L115.186 128.678L111.326 117.215L105.261 115.373L100.078 120.453L103.667 131.111C103.869 131.053 110.769 133.421 110.769 133.421Z" fill="#9D9696"/>
<path fill-rule="evenodd" clip-rule="evenodd" d="M80.5427 135.933L79.6052 125.07L73.2248 121.941L67.9337 125.819L69.0118 138.305L76.4739 139.231L80.5427 135.933Z" fill="#9D9696"/>
<path fill-rule="evenodd" clip-rule="evenodd" d="M79.6052 125.07C82.1121 122.768 83.2658 119.168 82.2825 115.666C81.9683 114.538 81.4549 113.515 80.8026 112.623L71.4061 109.089L64.2049 116.084C63.8651 117.561 63.8781 119.14 64.3143 120.701C64.9145 122.86 66.2307 124.625 67.9334 125.819C70.146 127.374 73.0104 127.962 75.8163 127.172C77.28 126.764 78.5573 126.031 79.6052 125.07Z" fill="#FDB440"/>
<path fill-rule="evenodd" clip-rule="evenodd" d="M106.203 120.836C108.361 120.236 110.133 118.918 111.326 117.215C112.88 115.002 113.46 112.138 112.676 109.329C112.362 108.201 111.849 107.178 111.189 106.288L101.795 102.918L94.5914 109.748C94.2517 111.226 94.2647 112.804 94.7009 114.365C95.501 117.218 97.5426 119.393 100.079 120.453C101.951 121.248 104.099 121.433 106.203 120.836Z" fill="#FDB440"/>
<path fill-rule="evenodd" clip-rule="evenodd" d="M79.6052 125.07C82.1121 122.768 83.2658 119.168 82.2826 115.666C81.9684 114.538 81.4549 113.515 80.8026 112.623L64.2049 116.084C63.9633 117.122 63.8978 118.211 64.0327 119.313L73.422 117.355C75.83 116.853 77.013 116.994 77.8021 119.794C78.2195 121.303 78.2441 122.824 77.9419 124.254C77.7533 125.132 77.4464 125.97 77.0234 126.746C77.9878 126.332 78.8555 125.755 79.6052 125.07Z" fill="#FE9737"/>
<path fill-rule="evenodd" clip-rule="evenodd" d="M109.992 118.734C112.506 116.431 113.66 112.832 112.677 109.329C112.362 108.201 111.849 107.178 111.189 106.288L94.5915 109.748C94.3499 110.787 94.2845 111.875 94.427 112.976L103.809 111.02C106.224 110.517 107.407 110.657 108.189 113.459C108.614 114.967 108.638 116.487 108.329 117.919C108.148 118.795 107.833 119.635 107.418 120.409C108.382 119.995 109.249 119.418 109.992 118.734Z" fill="#FE9737"/>
<path fill-rule="evenodd" clip-rule="evenodd" d="M50.6884 70.5413L79.6454 71.561L105.57 59.099C101.6 40.0548 85.8957 33.4007 72.1751 36.2613C58.4545 39.1219 46.7179 51.4971 50.6884 70.5413Z" fill="#EEE1DC"/>
<path fill-rule="evenodd" clip-rule="evenodd" d="M67.361 59.4056C69.8747 58.8816 71.4869 56.4191 70.9641 53.9116C70.4397 51.3966 67.9779 49.7835 65.4641 50.3076C62.9577 50.8301 61.3459 53.2925 61.8702 55.8076C62.393 58.3151 64.8546 59.9282 67.361 59.4056Z" fill="#60B7FF"/>
<path fill-rule="evenodd" clip-rule="evenodd" d="M85.8518 55.5505C88.3656 55.0264 89.9777 52.5639 89.455 50.0565C88.9306 47.5414 86.4688 45.9283 83.955 46.4524C81.4412 46.9765 79.8291 49.439 80.3535 51.954C80.876 54.4615 83.3378 56.0746 85.8518 55.5505Z" fill="#60B7FF"/>
<path fill-rule="evenodd" clip-rule="evenodd" d="M41.8498 88.7071L25.0569 77.7032L24.3439 71.4414L30.4023 69.5379L45.676 79.5463L45.2902 85.1993L41.8498 88.7071Z" fill="#9D9696"/>
<path fill-rule="evenodd" clip-rule="evenodd" d="M51.1695 95.0954C46.3706 95.7639 41.9123 92.6464 40.808 88.0311C40.7388 87.7372 40.6833 87.4327 40.6443 87.1324C40.1719 83.7293 41.5925 80.5004 44.102 78.5149C45.3636 77.5168 46.896 76.8336 48.6007 76.5968C49.7598 76.4342 50.9027 76.4963 51.9819 76.7457L59.5034 84.1333L55.4439 93.3507C54.2256 94.2526 52.7742 94.8715 51.1695 95.0954Z" fill="#FDB440"/>
<path fill-rule="evenodd" clip-rule="evenodd" d="M23.813 78.0652C19.3303 78.9998 14.9379 76.1213 14.0029 71.6368C13.4438 68.9552 14.2503 66.305 15.9412 64.4109C17.0821 63.1375 18.6247 62.1995 20.4268 61.8237C22.229 61.448 24.0179 61.6915 25.5726 62.4029C27.8795 63.4632 29.6778 65.5703 30.237 68.2522C30.327 68.6838 30.3851 69.1144 30.4023 69.5379C30.5806 73.121 28.4127 76.4424 25.0569 77.7032C24.6624 77.8567 24.2444 77.9753 23.813 78.0652Z" fill="#FDB440"/>
<path d="M92.8628 74.5128L85.518 76.0441C84.4146 76.2742 83.3336 75.5659 83.1035 74.4622C82.8733 73.3585 83.5813 72.2773 84.6847 72.0472L92.0295 70.5159C93.1329 70.2858 94.2139 70.9941 94.444 72.0978C94.6742 73.2015 93.9662 74.2828 92.8628 74.5128Z" fill="black"/>
<path d="M76.0532 78.0175L68.7082 79.5488C67.6047 79.7789 66.5237 79.0706 66.2936 77.9669C66.0635 76.8632 66.7714 75.782 67.8749 75.5519L75.2199 74.0205C76.3233 73.7905 77.4044 74.4987 77.6345 75.6025C77.8646 76.7062 77.1567 77.7874 76.0532 78.0175Z" fill="black"/>
<path fill-rule="evenodd" clip-rule="evenodd" d="M86.692 149.132C88.1383 148.83 89.0793 147.393 88.776 145.938L87.7873 141.196C87.0829 137.818 83.903 135.564 80.5429 135.933C80.3353 135.96 80.1202 135.989 79.9157 136.032L69.0121 138.305L66.1424 138.903C62.5608 139.65 60.2431 143.2 60.9902 146.783L61.9789 151.525C62.2821 152.98 63.7188 153.921 65.1652 153.62L86.692 149.132Z" fill="#FDB440"/>
<path fill-rule="evenodd" clip-rule="evenodd" d="M103.305 145.668L124.832 141.18C126.278 140.878 127.219 139.441 126.916 137.987L125.927 133.244C125.18 129.661 121.637 127.333 118.056 128.08L115.186 128.678L104.282 130.951C104.07 130.996 103.869 131.053 103.668 131.111C100.44 132.116 98.4259 135.453 99.1303 138.831L100.119 143.573C100.422 145.028 101.851 145.971 103.305 145.668Z" fill="#FDB440"/>
<path fill-rule="evenodd" clip-rule="evenodd" d="M120.931 72.2194L131.928 55.4217L130.072 49.3983L123.757 50.0743L113.763 65.3508L116.368 70.3803L120.931 72.2194Z" fill="#9D9696"/>
<path fill-rule="evenodd" clip-rule="evenodd" d="M114.933 81.8013C119.607 80.4949 122.441 75.8571 121.609 71.1851C121.555 70.888 121.484 70.5867 121.407 70.2943C120.48 66.9859 117.888 64.5936 114.787 63.778C113.239 63.3655 111.561 63.3516 109.896 63.8174C108.769 64.1315 107.753 64.6435 106.864 65.3034L102.913 75.0828L110.326 81.9085C111.795 82.2499 113.373 82.2374 114.933 81.8013Z" fill="#FDB440"/>
<path fill-rule="evenodd" clip-rule="evenodd" d="M133.213 55.2565C137.696 54.3219 140.564 49.9295 139.629 45.445C139.07 42.7634 137.28 40.6547 134.965 39.5957C133.41 38.8843 131.621 38.6409 129.827 39.015C128.025 39.3907 126.482 40.3288 125.341 41.6022C123.642 43.4976 122.844 46.1462 123.403 48.8281C123.493 49.2598 123.612 49.6777 123.757 50.0744C125.026 53.4302 128.34 55.6086 131.928 55.4217C132.351 55.4048 132.781 55.3464 133.213 55.2565Z" fill="#FDB440"/>
<path fill-rule="evenodd" clip-rule="evenodd" d="M80.8028 112.623L94.5915 109.748L111.189 106.288C113.415 105.823 114.853 103.627 114.391 101.407L111.44 87.2564L107.978 70.6513L105.57 59.0991L50.6884 70.5413L53.0969 82.0935L54.8705 90.6006L56.5589 98.6986L59.5487 113.039C59.9893 115.152 62.0851 116.526 64.2052 116.084L80.8029 112.623L80.8028 112.623Z" fill="#CDBEB9"/>
<path fill-rule="evenodd" clip-rule="evenodd" d="M114.933 81.8013C119.607 80.4949 122.441 75.8571 121.609 71.1851C121.555 70.8879 121.484 70.5866 121.407 70.2942C120.48 66.9859 117.888 64.5936 114.787 63.7779C113.239 63.3655 111.561 63.3516 109.896 63.8174C108.934 64.0891 108.048 64.5031 107.256 65.0239C107.95 65.0533 108.634 65.1556 109.294 65.3261C110.524 65.6547 111.679 66.2282 112.679 67.0075C114.191 68.1943 115.349 69.8497 115.907 71.844C115.992 72.1348 116.062 72.4361 116.109 72.7348C116.125 72.8105 116.14 72.8862 116.149 72.9636C116.708 76.5936 115.059 80.1704 112.081 82.143C113.02 82.1765 113.986 82.0699 114.933 81.8013Z" fill="#FE9737"/>
<path fill-rule="evenodd" clip-rule="evenodd" d="M30.4023 69.5379C30.3851 69.1147 30.327 68.6841 30.237 68.2522C29.6779 65.5706 27.8796 63.4634 25.5726 62.4029C24.0179 61.6915 22.229 61.448 20.4268 61.8237C19.4804 62.0211 18.6064 62.3773 17.8199 62.8493C20.4214 63.2001 22.725 64.7752 23.9894 67.0883C24.373 67.7908 24.6599 68.5611 24.8305 69.3791C24.96 70.0002 25.0183 70.6205 25.0111 71.2307C24.9967 72.0715 24.8502 72.8846 24.6002 73.6561C24.2657 74.6664 23.7484 75.5963 23.0711 76.4016C22.4958 77.0907 21.7998 77.6942 21.0134 78.1665C21.9246 78.2926 22.8665 78.2623 23.8129 78.065C24.2446 77.975 24.6623 77.8562 25.0568 77.7029C28.4129 76.4424 30.5805 73.121 30.4023 69.5379Z" fill="#FE9737"/>
<path fill-rule="evenodd" clip-rule="evenodd" d="M139.81 46.7671C139.784 46.3378 139.727 45.9149 139.637 45.4829C139.078 42.8014 137.288 40.6926 134.971 39.6263C133.417 38.9149 131.629 38.6788 129.827 39.0545C128.881 39.2518 128.005 39.6004 127.228 40.0785C129.82 40.4235 132.133 42.0044 133.397 44.3175C133.779 45.0126 134.066 45.7827 134.238 46.6083C134.368 47.2294 134.426 47.8497 134.411 48.4615C134.396 49.2949 134.258 50.1138 134.001 50.8869C133.672 51.8882 133.149 52.8271 132.471 53.6324C131.896 54.3215 131.206 54.916 130.421 55.3957C131.323 55.516 132.267 55.4931 133.213 55.2957C133.645 55.2057 134.061 55.0794 134.457 54.9337C137.819 53.664 139.988 50.3502 139.81 46.7671Z" fill="#FE9737"/>
<path fill-rule="evenodd" clip-rule="evenodd" d="M98.0405 96.7692C99.1914 96.5292 99.9404 95.3849 99.7004 94.2335L97.6693 84.4916C97.4292 83.3401 96.2853 82.5904 95.1344 82.8304L69.9499 88.0811C68.799 88.321 68.05 89.4653 68.29 90.6168L70.3211 100.359C70.5612 101.51 71.7051 102.26 72.856 102.02L98.0405 96.7692Z" fill="#60B7FF"/>
<path fill-rule="evenodd" clip-rule="evenodd" d="M53.7555 85.2524L51.9819 76.7454C50.9026 76.496 49.76 76.4339 48.6007 76.5966C47.887 76.698 47.1967 76.8736 46.5465 77.1275L50.3085 95.172C50.5906 95.1605 50.8848 95.1308 51.1694 95.0952C52.7742 94.8713 54.2253 94.2527 55.4435 93.3503L53.7552 85.2525L53.7555 85.2524Z" fill="#FE9737"/>
<path fill-rule="evenodd" clip-rule="evenodd" d="M126.916 137.987L125.927 133.244C125.18 129.661 121.637 127.333 118.056 128.08L115.186 128.678L111.165 129.516C114.754 128.768 118.297 131.096 119.044 134.679L120.033 139.422C120.336 140.876 119.396 142.313 117.942 142.616L124.832 141.18C126.278 140.878 127.219 139.441 126.916 137.987Z" fill="#FE9737"/>
<path fill-rule="evenodd" clip-rule="evenodd" d="M88.776 145.938L87.7873 141.196C87.0402 137.613 83.4971 135.285 79.9155 136.032L77.0457 136.63L73.0251 137.468C76.6141 136.72 80.1573 139.048 80.9043 142.631L81.893 147.373C82.1962 148.828 81.2555 150.265 79.8017 150.568L86.692 149.132C88.1382 148.83 89.0792 147.393 88.776 145.938Z" fill="#FE9737"/>
<path fill-rule="evenodd" clip-rule="evenodd" d="M105.57 59.0991C101.599 40.0549 85.8954 33.4007 72.1748 36.2613C70.812 36.5455 69.4755 36.9191 68.1672 37.3893C80.7647 36.5335 93.868 43.6349 97.4453 60.793L105.57 59.0991Z" fill="#CDBEB9"/>
<path fill-rule="evenodd" clip-rule="evenodd" d="M114.391 101.407L111.44 87.2564L107.978 70.6513L105.57 59.0991L97.4453 60.793L107.108 107.139L111.189 106.288C113.415 105.823 114.853 103.627 114.391 101.407Z" fill="#9D9696"/>
<path fill-rule="evenodd" clip-rule="evenodd" d="M70.4233 27.8604C73.717 27.1736 75.825 23.9437 75.138 20.6487C74.4509 17.3534 71.2298 15.2425 67.9358 15.9292C64.6421 16.616 62.5251 19.8398 63.2122 23.1351C63.8991 26.4301 67.1296 28.5471 70.4233 27.8604Z" fill="#FD8087"/>
<path fill-rule="evenodd" clip-rule="evenodd" d="M70.4233 27.8604C73.717 27.1737 75.825 23.9438 75.138 20.6487C74.4509 17.3534 71.2298 15.2425 67.9358 15.9293C67.1938 16.084 66.5164 16.3596 65.9097 16.7468C67.8902 17.4167 69.4787 19.0855 69.9352 21.2747C70.469 23.8352 69.3185 26.3515 67.2389 27.6705C68.225 28.0026 69.3254 28.0893 70.4233 27.8604Z" fill="#FD4755"/>
<path fill-rule="evenodd" clip-rule="evenodd" d="M80.5426 135.933L79.6052 125.07C78.8553 125.756 77.9878 126.332 77.0233 126.746C76.6393 126.913 76.2356 127.06 75.8163 127.172C75.1459 127.367 74.4656 127.477 73.7923 127.507L74.4634 137.168L77.0455 136.63L79.9152 136.032C80.12 135.989 80.335 135.96 80.5426 135.933Z" fill="#746E6E"/>
<path fill-rule="evenodd" clip-rule="evenodd" d="M115.186 128.678L111.326 117.215C110.936 117.771 110.496 118.273 109.991 118.734C109.249 119.418 108.382 119.994 107.417 120.409C107.135 120.531 106.841 120.64 106.545 120.733L109.779 129.805L111.165 129.516L115.186 128.678L115.186 128.678Z" fill="#746E6E"/>
<path fill-rule="evenodd" clip-rule="evenodd" d="M95.1344 82.8307L69.95 88.0814C68.7991 88.3214 68.05 89.4657 68.2901 90.6171L69.3056 95.4879C69.064 94.3288 69.8146 93.1922 70.9655 92.9522L96.1499 87.7015C97.3009 87.4616 98.4432 88.2036 98.6848 89.3627L97.6693 84.4919C97.4292 83.3401 96.2854 82.5907 95.1344 82.8307Z" fill="#22A6FE"/>
<path d="M71.2839 78.6007L66.0139 79.6994C64.9104 79.9295 63.8294 79.2213 63.5993 78.1175C63.3692 77.0138 64.0771 75.9326 65.1806 75.7025L70.4506 74.6038C71.5541 74.3737 72.6351 75.082 72.8652 76.1857C73.0953 77.2894 72.3874 78.3706 71.2839 78.6007Z" fill="#FD4755"/>
<path d="M95.3931 73.5742L90.1231 74.673C89.0196 74.903 87.9386 74.1948 87.7085 73.091C87.4784 71.9873 88.1863 70.9061 89.2898 70.676L94.5598 69.5773C95.6632 69.3472 96.7443 70.0555 96.9744 71.1592C97.2045 72.2629 96.4966 73.3441 95.3931 73.5742Z" fill="#FD4755"/>
</g>
<defs>
<clipPath id="clip0">
<rect width="138" height="138" fill="white" transform="translate(0 28.1659) rotate(-11.7769)"/>
</clipPath>
</defs>
</svg>
