<svg width="115" height="158" viewBox="0 0 115 158" fill="none" xmlns="http://www.w3.org/2000/svg">
<path d="M7.05892 126.313C8.01702 126.214 8.84556 125.598 9.31282 124.755L52.2795 47.2549C52.9136 46.0443 54.0175 45.1474 55.3324 44.7744L67.806 41.2375C69.6519 40.7141 71.2215 39.4915 72.1809 37.8297L89.8656 7.19899L96.6423 11.1116L103.419 15.0241L85.7343 45.6551C84.7749 47.3168 84.501 49.2872 84.9706 51.1478L88.1443 63.7188C88.4787 65.0439 88.2539 66.4484 87.5225 67.6028L41.8886 143.563C41.3924 144.389 41.2733 145.414 41.6664 146.294C41.9329 146.891 41.9097 147.605 41.5386 148.209L37.5441 154.715C36.5842 156.279 34.5538 156.793 32.9652 155.876L18.0382 147.258L3.11123 138.64C1.52235 137.722 0.95301 135.707 1.82708 134.094L5.46422 127.382C5.80181 126.758 6.40857 126.381 7.05892 126.313Z" fill="#CDEAE0"/>
<path d="M7.05939 126.312C8.01749 126.213 8.84602 125.597 9.31328 124.754L52.28 47.254C52.9141 46.0433 54.018 45.1465 55.3328 44.7735L67.8065 41.2365C69.6526 40.7129 71.222 39.4905 72.1814 37.8288L89.8661 7.19806L96.6428 11.1106L103.42 15.0232L86.1884 44.8684C85.8927 45.3805 85.4502 45.792 84.9183 46.0501L70.0402 53.2648C68.7253 53.6378 67.6214 54.5346 66.9873 55.7453L24.0206 133.246C23.5536 134.088 22.7251 134.704 21.7667 134.804C21.1164 134.871 20.5098 135.248 20.1722 135.872L16.535 142.584C15.6608 144.197 16.2306 146.213 17.8192 147.13L3.11158 138.638C1.5227 137.721 0.953363 135.705 1.82743 134.093L5.46456 127.38C5.80227 126.757 6.40903 126.38 7.05939 126.312Z" fill="#B6D1C6"/>
<path d="M75.0317 33.7996L87.7986 41.1706C88.4174 41.5279 89.2085 41.3159 89.5657 40.6971L103.503 16.5575C103.86 15.9387 103.648 15.1477 103.029 14.7904L90.2623 7.41941C89.6435 7.06215 88.8524 7.27412 88.4952 7.89292L74.5582 32.0325C74.2009 32.6513 74.4131 33.4425 75.0317 33.7996Z" fill="#E60D28"/>
<path d="M70.9572 77.2255C67.2286 69.8083 60.5194 65.9347 52.2239 66.4201C51.4511 66.4654 50.9235 65.6523 51.2827 64.9662L53.3764 60.9689C54.1038 59.58 55.6178 58.7848 57.1739 58.9794C64.3341 59.8751 70.5625 63.4669 74.9231 69.2184C75.8709 70.4687 75.9401 72.1783 75.1003 73.5038L72.687 77.313C72.2722 77.967 71.3048 77.9169 70.9572 77.2255Z" fill="#FC502A"/>
<path d="M22.476 121.855L37.8184 130.713C38.936 131.358 40.3655 130.975 41.0108 129.858C41.6561 128.74 41.2731 127.311 40.1554 126.665L24.813 117.807C23.6954 117.162 22.2659 117.545 21.6206 118.663C20.9753 119.78 21.3581 121.21 22.476 121.855Z" fill="white"/>
<path d="M18.8116 128.202L34.1539 137.06C35.2716 137.705 36.7011 137.322 37.3464 136.205C37.9917 135.087 37.6086 133.658 36.491 133.012L21.1486 124.154C20.0309 123.509 18.6014 123.892 17.9562 125.01C17.3109 126.127 17.6936 127.557 18.8116 128.202Z" fill="white"/>
<path d="M38.9974 92.8966L54.6362 101.926C55.3526 102.339 56.268 102.103 56.6946 101.394L64.0238 89.2211C64.4617 88.4939 64.2177 87.5489 63.4827 87.1245L47.3923 77.8347C46.6573 77.4104 45.7169 77.6716 45.3061 78.4144L38.4285 90.8482C38.028 91.5718 38.2812 92.4831 38.9974 92.8966Z" fill="#FC502A"/>
<path d="M86.1675 11.9228L101.176 20.588L98.8391 24.6359L83.8304 15.9706L86.1675 11.9228Z" fill="#E9EAEB"/>
<path d="M47.3924 77.8347L52.9589 81.0485L44.5979 96.1296L38.9976 92.8963C38.2812 92.4827 38.0281 91.5718 38.4287 90.8479L45.3063 78.4141C45.7169 77.6715 46.6574 77.4103 47.3924 77.8347Z" fill="#E60D28"/>
<path d="M57.1739 58.9797C59.6275 59.2865 61.968 59.9173 64.1652 60.8359L60.4501 67.5373C57.953 66.6332 55.1909 66.2464 52.2245 66.4204C51.4516 66.4656 50.924 65.6526 51.2833 64.9665L53.3769 60.9692C54.1039 59.58 55.6177 58.785 57.1739 58.9797Z" fill="#E60D28"/>
</svg>
