<svg width="87" height="87" viewBox="0 0 87 87" fill="none" xmlns="http://www.w3.org/2000/svg">
<ellipse cx="48.0481" cy="17.7309" rx="22.952" ry="5.73801" transform="rotate(15 48.0481 17.7309)" fill="white"/>
<path d="M36.767 62.2972C45.8907 64.7419 52.8107 64.8566 54.6974 63.5141L65.3062 37.8669C62.1879 39.4373 53.7586 38.4414 43.8692 35.7916C33.9797 33.1417 26.1832 29.7899 24.2658 26.8701L20.6309 54.3868C21.5939 56.4914 27.6432 59.8525 36.767 62.2972Z" fill="#FE4646"/>
<path d="M20.194 63.4677C21.7742 65.4011 27.0544 68.1289 34.6592 70.1666C42.2639 72.2043 48.2006 72.4821 50.5365 71.5979C51.113 70.4048 51.4904 69.3185 51.4904 69.3185L53.4296 64.7147C50.6644 65.9782 43.4217 64.856 36.5731 63.0209C29.7244 61.1859 22.8915 58.5373 21.1293 56.0606L20.5067 61.0171C20.5067 61.0171 20.2913 62.1461 20.194 63.4677Z" fill="#FE4646"/>
<path d="M34.407 71.1049C28.6001 69.549 22.8723 67.1005 20.7963 64.9464C20.7446 66.1776 20.8383 67.464 21.355 68.0283L21.3479 68.0744L21.414 68.0921C23.7583 70.6 27.5438 72.8771 33.5035 74.474C39.4639 76.071 43.8801 75.9916 47.165 74.992L47.2311 75.0098L47.2479 74.9663C47.978 74.7368 48.7018 73.6688 49.2734 72.5769C46.3985 73.4043 40.2152 72.6612 34.407 71.1049Z" fill="#FE4646"/>
<path d="M50.1494 12.3535C36.8852 8.79939 25.4321 8.52839 24.5691 11.7489C24.3915 12.412 24.6835 13.1729 25.3645 13.9916L23.8854 25.0124C25.0601 27.8667 33.5953 32.1523 44.0907 34.9646C54.5875 37.7772 64.1214 38.3332 66.5652 36.4485L70.7946 26.1645C71.7944 25.7963 72.4262 25.2836 72.6041 24.6198C73.467 21.3993 63.4142 15.9078 50.1494 12.3535ZM47.4401 22.4647C35.5413 19.2764 26.4422 14.6494 27.1173 12.1298C27.7926 9.60961 37.9862 10.152 49.885 13.3403C61.7844 16.5287 70.8828 21.1556 70.2075 23.6758C69.5324 26.1954 59.3395 25.6531 47.4401 22.4647Z" fill="#FE4646"/>
</svg>
