<svg width="121" height="121" viewBox="0 0 121 121" fill="none" xmlns="http://www.w3.org/2000/svg">
<path d="M23.1637 18.4574L72.8001 5.87281C76.4552 4.94611 80.1695 7.15795 81.0962 10.8131L100.393 86.9222C101.319 90.5773 99.1075 94.2917 95.4523 95.2184L45.8159 107.803C42.1608 108.73 38.4465 106.518 37.5198 102.863L18.2234 26.7535C17.2967 23.0984 19.5086 19.3841 23.1637 18.4574Z" fill="#D4D4D4"/>
<path d="M38.8645 105.492C40.5349 107.549 43.2465 108.451 45.8159 107.803L95.4523 95.2184C99.1074 94.2917 101.319 90.5773 100.393 86.9222L82.9419 18.0931C78.5687 57.4768 52.0972 90.961 38.8645 105.492Z" fill="#C7C7C7"/>
<path d="M68.9562 94.8925C82.6629 91.4173 90.9572 77.4887 87.4821 63.782C84.007 50.0752 70.0783 41.7809 56.3716 45.256C42.6649 48.7312 34.3705 62.6598 37.8457 76.3666C41.3208 90.0733 55.2495 98.3676 68.9562 94.8925Z" fill="#737373"/>
<path d="M67.6977 89.9288C56.7324 92.7089 45.5894 86.0734 42.8093 75.1081C40.0292 64.1428 46.6648 52.9998 57.6301 50.2197C68.5954 47.4396 79.7384 54.0751 82.5185 65.0404C85.2856 76.0039 78.6553 87.1381 67.6977 89.9288ZM58.469 53.5288C49.3312 55.8455 43.8017 65.1312 46.1184 74.2691C48.4352 83.407 57.7209 88.9365 66.8588 86.6197C75.9966 84.3029 81.5262 75.0172 79.2094 65.8794C76.8837 56.7482 67.6053 51.223 58.469 53.5288Z" fill="#DE4C3C"/>
<path d="M54.6937 38.6379C60.1764 37.2478 63.4941 31.6763 62.104 26.1936C60.714 20.711 55.1425 17.3932 49.6598 18.7833C44.1771 20.1733 40.8594 25.7448 42.2495 31.2275C43.6395 36.7102 49.211 40.0279 54.6937 38.6379Z" fill="#666666"/>
<path d="M53.0157 32.0197C54.8433 31.5563 55.9492 29.6992 55.4858 27.8716C55.0225 26.044 53.1653 24.9381 51.3378 25.4015C49.5102 25.8648 48.4043 27.722 48.8677 29.5495C49.331 31.3771 51.1882 32.483 53.0157 32.0197Z" fill="#737373"/>
<path d="M22.7676 23.8405L26.0767 23.0015L26.9156 26.3106L23.6066 27.1496L22.7676 23.8405Z" fill="#737373"/>
<path d="M72.404 11.2559L75.7131 10.4169L76.5521 13.726L73.243 14.565L72.404 11.2559Z" fill="#737373"/>
<path d="M42.064 99.9497L45.3731 99.1107L46.212 102.42L42.9029 103.259L42.064 99.9497Z" fill="#737373"/>
<path d="M91.7004 87.3651L95.0095 86.5261L95.8485 89.8352L92.5394 90.6742L91.7004 87.3651Z" fill="#737373"/>
<path d="M64.3418 76.6924C67.997 75.7657 70.2088 72.0514 69.2821 68.3963C68.3554 64.7412 64.6411 62.5294 60.986 63.4561C57.3308 64.3828 55.119 68.0971 56.0457 71.7522C56.9724 75.4073 60.6867 77.6191 64.3418 76.6924Z" fill="#DEDEDE"/>
<path d="M45.8159 107.803L52.4341 106.125L54.1121 112.743L47.4939 114.421L45.8159 107.803Z" fill="#737373"/>
<path d="M88.8342 96.8963L95.4524 95.2183L97.1303 101.837L90.5121 103.514L88.8342 96.8963Z" fill="#737373"/>
<path d="M23.3742 81.7965L16.756 83.4744C15.8423 83.7061 14.9137 83.1531 14.682 82.2394C14.4504 81.3256 15.0034 80.397 15.9171 80.1653L22.5353 78.4874C23.449 78.2557 24.3776 78.8087 24.6093 79.7224C24.841 80.6362 24.288 81.5648 23.3742 81.7965Z" fill="#87CED9"/>
<path d="M20.4378 70.2147C19.999 70.3259 19.534 70.258 19.1452 70.0265L12.9231 66.3213C12.1217 65.8249 11.8743 64.7728 12.3707 63.9714C12.8548 63.1896 13.8713 62.9319 14.6694 63.3886L20.8915 67.0938C21.7015 67.5763 21.9669 68.6239 21.4844 69.4338C21.2528 69.8225 20.8765 70.1034 20.4378 70.2147Z" fill="#87CED9"/>
<path d="M22.6055 99.6004C21.6917 99.8319 20.7632 99.2788 20.5317 98.3648C20.4205 97.9262 20.4883 97.4615 20.7196 97.0727L24.4248 90.8506C24.9211 90.049 25.9731 89.8017 26.7746 90.298C27.5566 90.782 27.8144 91.7988 27.3575 92.5969L23.6523 98.819C23.4207 99.2079 23.0443 99.4891 22.6055 99.6004Z" fill="#87CED9"/>
<path d="M109.411 59.9832L102.793 61.6611C101.879 61.8928 100.95 61.3398 100.718 60.4261C100.487 59.5123 101.04 58.5837 101.954 58.352L108.572 56.6741C109.485 56.4424 110.414 56.9954 110.646 57.9091C110.877 58.8229 110.324 59.7515 109.411 59.9832Z" fill="#87CED9"/>
<path d="M99.8561 50.0793C98.9423 50.3107 98.0139 49.7577 97.7824 48.8437C97.6712 48.405 97.7389 47.9402 97.9703 47.5516L101.675 41.3294C102.172 40.5279 103.224 40.2805 104.025 40.7768C104.807 41.261 105.065 42.2775 104.608 43.0758L100.903 49.2979C100.671 49.6868 100.295 49.968 99.8561 50.0793Z" fill="#87CED9"/>
<path d="M111.951 76.9481C111.512 77.0594 111.047 76.9915 110.658 76.7599L104.436 73.0548C103.635 72.5585 103.387 71.5065 103.884 70.7049C104.368 69.923 105.384 69.6652 106.183 70.1221L112.405 73.8273C113.215 74.3097 113.48 75.3573 112.998 76.1673C112.766 76.5559 112.39 76.8369 111.951 76.9481Z" fill="#87CED9"/>
</svg>
