<svg width="93" height="93" viewBox="0 0 93 93" fill="none" xmlns="http://www.w3.org/2000/svg">
<g clip-path="url(#clip0)">
<path d="M35.2672 81.7269C36.0787 81.9845 36.9442 81.5342 37.2019 80.7227L40.0908 71.6221C40.3484 70.8105 39.9002 69.9457 39.0888 69.6881C38.2774 69.4305 37.4103 69.878 37.1527 70.6894L34.2638 79.79C34.0062 80.6016 34.4558 81.4693 35.2672 81.7269Z" fill="#8CC153"/>
<path d="M15.2983 62.1906L17.5317 62.2977C17.8161 61.805 18.3565 61.498 18.9426 61.5253L21.1754 61.6346C21.5301 61.0175 22.2748 60.709 22.9787 60.9325L24.7782 61.5037C24.9393 61.3321 25.1402 61.1992 25.3674 61.1174C25.8172 60.9544 26.3187 61.0095 26.7229 61.2658L28.2351 62.2268C28.3634 62.1514 28.5053 62.0922 28.6562 62.0572C29.1823 61.9303 29.7353 62.0918 30.115 62.4777L31.4923 63.8791C31.977 63.7558 32.4928 63.877 32.8754 64.2019L39.1292 69.5612L47.3259 68.7891C47.8259 68.7442 48.3173 68.9428 48.6442 69.3238L50.5774 68.9733C51.1082 68.8764 51.6529 69.0636 52.0094 69.4705C52.1125 69.5862 52.1944 69.7163 52.2578 69.8526L54.0475 69.9397C54.5257 69.9635 54.9648 70.2073 55.2383 70.5996C55.3768 70.7977 55.4644 71.022 55.4991 71.2558L57.2963 71.8263C58.0001 72.0497 58.4329 72.732 58.3645 73.44L60.2516 74.6385C60.746 74.9542 61.0127 75.5174 60.9587 76.0832L62.8449 77.2839C63.4368 77.6589 63.6992 78.3844 63.4874 79.0516C63.2762 79.7167 62.6434 80.1578 61.9437 80.1229L59.7103 80.0158C59.4281 80.5091 58.8854 80.8153 58.2995 80.788L56.0666 80.6787C55.7148 81.2945 54.9672 81.6044 54.2633 81.381L52.466 80.8104C52.3034 80.9792 52.1018 81.1143 51.8746 81.1961C51.5505 81.3135 51.2028 81.3193 50.8821 81.2175C50.755 81.1772 50.6335 81.1196 50.5211 81.0485L49.0089 80.0874C48.8786 80.1622 48.7365 80.2213 48.5856 80.2563C48.0596 80.3832 47.506 80.224 47.1268 79.8359L45.7497 78.4344C45.2651 78.5578 44.7492 78.4366 44.3673 78.1093L38.1159 72.7533L29.9168 73.5221C29.4161 73.5692 28.9248 73.3707 28.6 72.9904L26.6666 73.3409C26.1338 73.4372 25.5889 73.25 25.2324 72.843C25.1293 72.7274 25.0475 72.5972 24.9862 72.4616L23.1965 72.3745C23.0616 72.3672 22.9291 72.3441 22.8043 72.3044C22.4836 72.2026 22.2007 71.9967 22.0037 71.7138C21.8653 71.5158 21.7785 71.2893 21.7451 71.0584L19.9457 70.4871C19.2419 70.2637 18.812 69.58 18.8775 68.8733L16.9904 67.6748C16.4959 67.3591 16.2315 66.7967 16.2833 66.2302L14.3971 65.0296C13.8074 64.6553 13.5427 63.9292 13.7538 63.264C13.9656 62.5969 14.5985 62.1556 15.2983 62.1906Z" fill="#A0D468"/>
<path d="M16.6188 28.6901C17.2682 28.3536 18.0641 28.5186 18.5235 29.0862L21.706 33.0036L21.7231 32.9948C22.3725 32.6583 23.1706 32.8241 23.6301 33.3916L26.8124 37.3092L26.8294 37.3003C27.1931 37.1101 27.6162 37.0762 28.0058 37.1999C28.3954 37.3235 28.7215 37.5952 28.9095 37.9582L31.0501 42.0899C31.3999 41.9806 31.783 41.9979 32.1265 42.1473C32.5513 42.3319 32.8714 42.6964 32.997 43.1439L34.2218 47.5038C34.5207 47.4803 34.8258 47.5415 35.0958 47.6912C35.5457 47.9383 35.8437 48.3954 35.8869 48.9089L36.289 53.5835C36.4493 53.6083 36.6043 53.6575 36.7511 53.7326C37.1928 53.9533 37.5016 54.376 37.5786 54.8646L39.6611 67.8866L48.8695 58.4488C49.2143 58.0939 49.7104 57.9269 50.1986 58.0014C50.3618 58.0247 50.519 58.0746 50.6621 58.1461L53.6866 54.5593C54.018 54.1646 54.5251 53.963 55.0373 54.0215C55.342 54.0542 55.6268 54.1801 55.8573 54.3718L59.3725 51.5166C59.7332 51.2235 60.2051 51.1103 60.6586 51.2045C61.0254 51.2806 61.3484 51.4875 61.5732 51.7792L65.7021 49.6401C66.0658 49.4499 66.4887 49.4159 66.8783 49.5396C67.2679 49.6633 67.594 49.935 67.7814 50.3002L67.7902 50.3172L72.6488 48.9522C73.3537 48.7543 74.0991 49.0785 74.4362 49.7257L74.4444 49.7448L79.3036 48.3802C80.0063 48.1815 80.7539 48.5065 81.0904 49.1559C81.4253 49.8024 81.2596 50.6003 80.692 51.0599L76.7743 54.2425L76.7852 54.2602C77.1216 54.9096 76.9546 55.7047 76.3861 56.1665L72.4687 59.349L72.4796 59.3667C72.8697 60.1232 72.5745 61.0529 71.8195 61.4459L67.6878 63.5867C67.7971 63.9365 67.7798 64.3195 67.6304 64.663C67.4458 65.0879 67.0813 65.408 66.6337 65.5337L62.274 66.7584C62.2976 67.0573 62.2364 67.3624 62.0867 67.6324C61.8395 68.0823 61.3825 68.3803 60.8688 68.4235L56.1944 68.8256C56.1696 68.9859 56.1204 69.1409 56.0475 69.2884C55.8246 69.7292 55.402 70.0382 54.9131 70.1152L38.8644 72.6784C38.8516 72.6815 38.8395 72.6823 38.8274 72.6832C38.7882 72.6873 38.7483 72.6935 38.7097 72.6956C38.6883 72.6959 38.669 72.6969 38.6477 72.6972C38.612 72.6977 38.5769 72.6962 38.5419 72.6945C38.5204 72.6948 38.4998 72.6929 38.4768 72.6903C38.4419 72.6886 38.406 72.6821 38.3702 72.6754C38.3517 72.6742 38.3315 72.6703 38.3137 72.6669C38.2621 72.6577 38.2119 72.644 38.1602 72.6276C38.158 72.6269 38.158 72.6269 38.156 72.6262C38.156 72.6262 38.156 72.6262 38.1538 72.6255C38.1473 72.6235 38.1387 72.6208 38.1301 72.618C38.0252 72.5823 37.926 72.5367 37.8324 72.4809C37.8302 72.4802 37.8281 72.4795 37.8266 72.4766C37.7784 72.4495 37.7337 72.4186 37.6902 72.3836C37.6845 72.3794 37.6787 72.3752 37.6729 72.371C37.631 72.3387 37.5897 72.3042 37.5521 72.2662C37.5499 72.2655 37.5463 72.2619 37.5449 72.2592L25.9117 60.9086C25.5568 60.5638 25.3919 60.0683 25.4642 59.5796C25.4875 59.4164 25.5367 59.2615 25.6089 59.1162L22.0222 56.0916C21.6297 55.7609 21.4259 55.2531 21.4836 54.743C21.5171 54.4361 21.6429 54.1515 21.8347 53.9209L18.9795 50.406C18.6886 50.0458 18.5733 49.5732 18.6675 49.1198C18.7435 48.7531 18.9504 48.4302 19.2436 48.2082L17.1029 44.0763C16.7106 43.3191 17.0058 42.3893 17.763 41.997L17.78 41.9882L16.4154 37.1289C16.2174 36.424 16.5417 35.6787 17.191 35.3422L17.2081 35.3334L15.8435 30.4742C15.645 29.7718 15.97 29.0244 16.6188 28.6901Z" fill="#8CC153"/>
<path d="M36.9056 39.7052C37.3106 39.3623 37.8647 39.2514 38.3684 39.4113L38.3813 39.4154L38.8415 32.9724C38.8746 32.502 39.1228 32.0713 39.5124 31.8065C39.9043 31.5423 40.3939 31.4703 40.8438 31.6131L41.2529 31.743L43.2624 25.4126C43.52 24.6011 44.3849 24.1531 45.1962 24.4106L45.9152 24.6388L49.6393 18.4749C50.0083 17.8646 50.7458 17.5869 51.426 17.8028L52.145 18.0311L55.8703 11.8674C56.2394 11.2571 56.9769 10.9794 57.657 11.1953C58.3351 11.4106 58.7794 12.0634 58.7267 12.7741L58.214 19.9575L58.9328 20.1857C59.6131 20.4016 60.0553 21.0538 60.0047 21.7652L59.492 28.9485L60.2108 29.1767C61.0224 29.4343 61.4725 30.3 61.2149 31.1114L59.2054 37.4417L59.6122 37.5708C60.0621 37.7137 60.4226 38.0556 60.5883 38.4967C60.7561 38.9384 60.7104 39.4335 60.4662 39.8368L57.126 45.3656L57.1367 45.369C57.6426 45.5296 58.0291 45.939 58.1622 46.4528C58.296 46.9644 58.156 47.5099 57.7916 47.8964L53.1944 52.7728C53.4779 52.9694 53.6898 53.257 53.7932 53.5955C53.9401 54.0806 53.8385 54.6097 53.5213 55.0042L39.8259 72.1207C39.4267 72.617 38.7632 72.8187 38.1562 72.626C37.5471 72.4326 37.1213 71.8852 37.0836 71.2502L35.7646 49.3674C35.733 48.8621 35.9552 48.3713 36.3549 48.0599C36.6347 47.843 36.9759 47.731 37.3188 47.7332L36.3756 41.0981C36.3009 40.5723 36.5011 40.046 36.9056 39.7052Z" fill="#A0D468"/>
</g>
<defs>
<clipPath id="clip0">
<rect width="74" height="74" fill="white" transform="matrix(-0.953129 -0.302563 -0.302563 0.953129 92.9213 22.3897)"/>
</clipPath>
</defs>
</svg>
