<svg width="145" height="88" viewBox="0 0 145 88" fill="none" xmlns="http://www.w3.org/2000/svg">
<path d="M13.5109 21.9066C14.3531 21.9066 15.0854 22.2178 15.7078 22.8403C16.3303 23.4627 16.6415 24.195 16.6415 25.0372V58.8694C16.6415 59.7116 16.3303 60.4439 15.7078 61.0663C15.0854 61.6888 14.3531 62 13.5109 62H7.68915C6.847 62 6.1147 61.6888 5.49225 61.0663C4.86979 60.4439 4.55857 59.7116 4.55857 58.8694V25.0372C4.55857 24.195 4.86979 23.4627 5.49225 22.8403C6.1147 22.2178 6.847 21.9066 7.68915 21.9066H13.5109ZM53.9197 21.9066C54.7619 21.9066 55.4942 22.2178 56.1166 22.8403C56.7391 23.4627 57.0503 24.195 57.0503 25.0372V58.8694C57.0503 59.7116 56.7391 60.4439 56.1166 61.0663C55.4942 61.6888 54.7619 62 53.9197 62H49.1964C48.3542 62 47.6219 61.6888 46.9995 61.0663C46.377 60.4439 46.0658 59.7116 46.0658 58.8694V46.0176C46.0658 45.688 45.9193 45.5233 45.6264 45.5233H36.6741C36.3445 45.5233 36.1798 45.688 36.1798 46.0176V58.8694C36.1798 59.7116 35.8685 60.4439 35.2461 61.0663C34.6236 61.6888 33.8913 62 33.0492 62H28.3258C27.4837 62 26.7514 61.6888 26.1289 61.0663C25.5065 60.4439 25.1953 59.7116 25.1953 58.8694V25.0372C25.1953 24.195 25.5065 23.4627 26.1289 22.8403C26.7514 22.2178 27.4837 21.9066 28.3258 21.9066H33.0492C33.8913 21.9066 34.6236 22.2178 35.2461 22.8403C35.8685 23.4627 36.1798 24.195 36.1798 25.0372V36.7906C36.1798 37.1201 36.3445 37.2849 36.6741 37.2849H45.6264C45.9193 37.2849 46.0658 37.1201 46.0658 36.7906V25.0372C46.0658 24.195 46.377 23.4627 46.9995 22.8403C47.6219 22.2178 48.3542 21.9066 49.1964 21.9066H53.9197ZM73.8338 41.9533C73.8338 49.6424 76.4884 53.487 81.7976 53.487C87.1068 53.487 89.7614 49.6424 89.7614 41.9533C89.7614 34.2641 87.1068 30.4196 81.7976 30.4196C76.4884 30.4196 73.8338 34.2641 73.8338 41.9533ZM67.7374 26.8496C71.1792 23.1881 75.866 21.3574 81.7976 21.3574C87.7292 21.3574 92.4159 23.1881 95.8577 26.8496C99.2996 30.5111 101.02 35.5457 101.02 41.9533C101.02 48.3609 99.2996 53.3955 95.8577 57.057C92.4159 60.7185 87.7292 62.5492 81.7976 62.5492C75.866 62.5492 71.1792 60.7185 67.7374 57.057C64.2956 53.3955 62.5747 48.3609 62.5747 41.9533C62.5747 35.5457 64.2956 30.5111 67.7374 26.8496ZM119.741 41.6787C122.121 41.6787 123.952 41.1295 125.234 40.031C126.515 38.9326 127.156 37.3764 127.156 35.3626C127.156 31.518 124.684 29.5957 119.741 29.5957C119.046 29.5957 118.368 29.6507 117.709 29.7605C117.416 29.8337 117.27 30.0351 117.27 30.3647V41.0196C117.27 41.3125 117.416 41.4956 117.709 41.5688C118.588 41.6421 119.265 41.6787 119.741 41.6787ZM118.643 21.3574C131.092 21.3574 137.316 25.8427 137.316 34.8134C137.316 39.6832 135.907 43.3813 133.087 45.9077C130.305 48.3975 126.222 49.6424 120.84 49.6424C120.034 49.6424 119.009 49.6058 117.764 49.5326C117.435 49.5326 117.27 49.6791 117.27 49.972V58.8694C117.27 59.7116 116.959 60.4439 116.336 61.0663C115.714 61.6888 114.981 62 114.139 62H109.69C108.848 62 108.116 61.6888 107.494 61.0663C106.871 60.4439 106.56 59.7116 106.56 58.8694V25.3118C106.56 24.433 106.853 23.6458 107.439 22.9501C108.025 22.2544 108.757 21.87 109.636 21.7967C112.748 21.5038 115.75 21.3574 118.643 21.3574Z" fill="#7E1A1A"/>
<path d="M16.5109 24.9066C17.3531 24.9066 18.0854 25.2178 18.7078 25.8403C19.3303 26.4627 19.6415 27.195 19.6415 28.0372V61.8694C19.6415 62.7116 19.3303 63.4439 18.7078 64.0663C18.0854 64.6888 17.3531 65 16.5109 65H10.6891C9.847 65 9.1147 64.6888 8.49225 64.0663C7.86979 63.4439 7.55857 62.7116 7.55857 61.8694V28.0372C7.55857 27.195 7.86979 26.4627 8.49225 25.8403C9.1147 25.2178 9.847 24.9066 10.6891 24.9066H16.5109ZM56.9197 24.9066C57.7619 24.9066 58.4942 25.2178 59.1166 25.8403C59.7391 26.4627 60.0503 27.195 60.0503 28.0372V61.8694C60.0503 62.7116 59.7391 63.4439 59.1166 64.0663C58.4942 64.6888 57.7619 65 56.9197 65H52.1964C51.3542 65 50.6219 64.6888 49.9995 64.0663C49.377 63.4439 49.0658 62.7116 49.0658 61.8694V49.0176C49.0658 48.688 48.9193 48.5233 48.6264 48.5233H39.6741C39.3445 48.5233 39.1798 48.688 39.1798 49.0176V61.8694C39.1798 62.7116 38.8685 63.4439 38.2461 64.0663C37.6236 64.6888 36.8913 65 36.0492 65H31.3258C30.4837 65 29.7514 64.6888 29.1289 64.0663C28.5065 63.4439 28.1953 62.7116 28.1953 61.8694V28.0372C28.1953 27.195 28.5065 26.4627 29.1289 25.8403C29.7514 25.2178 30.4837 24.9066 31.3258 24.9066H36.0492C36.8913 24.9066 37.6236 25.2178 38.2461 25.8403C38.8685 26.4627 39.1798 27.195 39.1798 28.0372V39.7906C39.1798 40.1201 39.3445 40.2849 39.6741 40.2849H48.6264C48.9193 40.2849 49.0658 40.1201 49.0658 39.7906V28.0372C49.0658 27.195 49.377 26.4627 49.9995 25.8403C50.6219 25.2178 51.3542 24.9066 52.1964 24.9066H56.9197ZM76.8338 44.9533C76.8338 52.6424 79.4884 56.487 84.7976 56.487C90.1068 56.487 92.7614 52.6424 92.7614 44.9533C92.7614 37.2641 90.1068 33.4196 84.7976 33.4196C79.4884 33.4196 76.8338 37.2641 76.8338 44.9533ZM70.7374 29.8496C74.1792 26.1881 78.866 24.3574 84.7976 24.3574C90.7292 24.3574 95.4159 26.1881 98.8577 29.8496C102.3 33.5111 104.02 38.5457 104.02 44.9533C104.02 51.3609 102.3 56.3955 98.8577 60.057C95.4159 63.7185 90.7292 65.5492 84.7976 65.5492C78.866 65.5492 74.1792 63.7185 70.7374 60.057C67.2956 56.3955 65.5747 51.3609 65.5747 44.9533C65.5747 38.5457 67.2956 33.5111 70.7374 29.8496ZM122.741 44.6787C125.121 44.6787 126.952 44.1295 128.234 43.031C129.515 41.9326 130.156 40.3764 130.156 38.3626C130.156 34.518 127.684 32.5957 122.741 32.5957C122.046 32.5957 121.368 32.6507 120.709 32.7605C120.416 32.8337 120.27 33.0351 120.27 33.3647V44.0196C120.27 44.3125 120.416 44.4956 120.709 44.5688C121.588 44.6421 122.265 44.6787 122.741 44.6787ZM121.643 24.3574C134.092 24.3574 140.316 28.8427 140.316 37.8134C140.316 42.6832 138.907 46.3813 136.087 48.9077C133.305 51.3975 129.222 52.6424 123.84 52.6424C123.034 52.6424 122.009 52.6058 120.764 52.5326C120.435 52.5326 120.27 52.6791 120.27 52.972V61.8694C120.27 62.7116 119.959 63.4439 119.336 64.0663C118.714 64.6888 117.981 65 117.139 65H112.69C111.848 65 111.116 64.6888 110.494 64.0663C109.871 63.4439 109.56 62.7116 109.56 61.8694V28.3118C109.56 27.433 109.853 26.6458 110.439 25.9501C111.025 25.2544 111.757 24.87 112.636 24.7967C115.748 24.5038 118.75 24.3574 121.643 24.3574Z" fill="#AE3131"/>
<path d="M19.5109 27.9066C20.3531 27.9066 21.0854 28.2178 21.7078 28.8403C22.3303 29.4627 22.6415 30.195 22.6415 31.0372V64.8694C22.6415 65.7116 22.3303 66.4439 21.7078 67.0663C21.0854 67.6888 20.3531 68 19.5109 68H13.6891C12.847 68 12.1147 67.6888 11.4922 67.0663C10.8698 66.4439 10.5586 65.7116 10.5586 64.8694V31.0372C10.5586 30.195 10.8698 29.4627 11.4922 28.8403C12.1147 28.2178 12.847 27.9066 13.6891 27.9066H19.5109ZM59.9197 27.9066C60.7619 27.9066 61.4942 28.2178 62.1166 28.8403C62.7391 29.4627 63.0503 30.195 63.0503 31.0372V64.8694C63.0503 65.7116 62.7391 66.4439 62.1166 67.0663C61.4942 67.6888 60.7619 68 59.9197 68H55.1964C54.3542 68 53.6219 67.6888 52.9995 67.0663C52.377 66.4439 52.0658 65.7116 52.0658 64.8694V52.0176C52.0658 51.688 51.9193 51.5233 51.6264 51.5233H42.6741C42.3445 51.5233 42.1798 51.688 42.1798 52.0176V64.8694C42.1798 65.7116 41.8685 66.4439 41.2461 67.0663C40.6236 67.6888 39.8913 68 39.0492 68H34.3258C33.4837 68 32.7514 67.6888 32.1289 67.0663C31.5065 66.4439 31.1953 65.7116 31.1953 64.8694V31.0372C31.1953 30.195 31.5065 29.4627 32.1289 28.8403C32.7514 28.2178 33.4837 27.9066 34.3258 27.9066H39.0492C39.8913 27.9066 40.6236 28.2178 41.2461 28.8403C41.8685 29.4627 42.1798 30.195 42.1798 31.0372V42.7906C42.1798 43.1201 42.3445 43.2849 42.6741 43.2849H51.6264C51.9193 43.2849 52.0658 43.1201 52.0658 42.7906V31.0372C52.0658 30.195 52.377 29.4627 52.9995 28.8403C53.6219 28.2178 54.3542 27.9066 55.1964 27.9066H59.9197ZM79.8338 47.9533C79.8338 55.6424 82.4884 59.487 87.7976 59.487C93.1068 59.487 95.7614 55.6424 95.7614 47.9533C95.7614 40.2641 93.1068 36.4196 87.7976 36.4196C82.4884 36.4196 79.8338 40.2641 79.8338 47.9533ZM73.7374 32.8496C77.1792 29.1881 81.866 27.3574 87.7976 27.3574C93.7292 27.3574 98.4159 29.1881 101.858 32.8496C105.3 36.5111 107.02 41.5457 107.02 47.9533C107.02 54.3609 105.3 59.3955 101.858 63.057C98.4159 66.7185 93.7292 68.5492 87.7976 68.5492C81.866 68.5492 77.1792 66.7185 73.7374 63.057C70.2956 59.3955 68.5747 54.3609 68.5747 47.9533C68.5747 41.5457 70.2956 36.5111 73.7374 32.8496ZM125.741 47.6787C128.121 47.6787 129.952 47.1295 131.234 46.031C132.515 44.9326 133.156 43.3764 133.156 41.3626C133.156 37.518 130.684 35.5957 125.741 35.5957C125.046 35.5957 124.368 35.6507 123.709 35.7605C123.416 35.8337 123.27 36.0351 123.27 36.3647V47.0196C123.27 47.3125 123.416 47.4956 123.709 47.5688C124.588 47.6421 125.265 47.6787 125.741 47.6787ZM124.643 27.3574C137.092 27.3574 143.316 31.8427 143.316 40.8134C143.316 45.6832 141.907 49.3813 139.087 51.9077C136.305 54.3975 132.222 55.6424 126.84 55.6424C126.034 55.6424 125.009 55.6058 123.764 55.5326C123.435 55.5326 123.27 55.6791 123.27 55.972V64.8694C123.27 65.7116 122.959 66.4439 122.336 67.0663C121.714 67.6888 120.981 68 120.139 68H115.69C114.848 68 114.116 67.6888 113.494 67.0663C112.871 66.4439 112.56 65.7116 112.56 64.8694V31.3118C112.56 30.433 112.853 29.6458 113.439 28.9501C114.025 28.2544 114.757 27.87 115.636 27.7967C118.748 27.5038 121.75 27.3574 124.643 27.3574Z" fill="#D24949"/>
</svg>
